<svg width="1440px" height="640px" viewBox="0 0 1440 640" version="1.1" xmlns="http://www.w3.org/2000/svg" xmlns:xlink="http://www.w3.org/1999/xlink">
    <!-- Generator: Sketch 40.1 (33804) - http://www.bohemiancoding.com/sketch -->
    <title>portland cityscape</title>
    <desc>Created with Sketch.</desc>
    <defs>
        <linearGradient x1="50%" y1="0%" x2="50%" y2="100%" id="linearGradient-1">
            <stop stop-color="#FFFFFF" stop-opacity="0.3" offset="0%"></stop>
            <stop stop-color="#FFFFFF" stop-opacity="0.02" offset="100%"></stop>
        </linearGradient>
        <rect id="path-2" x="0" y="0" width="1440" height="640"></rect>
    </defs>
    <g id="Page-1" stroke="none" stroke-width="1" fill="none" fill-rule="evenodd">
        <g id="Desktop" transform="translate(0.000000, -384.000000)">
            <g id="portland-cityscape" transform="translate(0.000000, 384.000000)">
                <polygon id="mountain" fill-opacity="0.6" fill="#2F1844" opacity="0.25" transform="translate(1037.153584, 346.479522) scale(-1, 1) translate(-1037.153584, -346.479522) " points="654 431.59727 1005.6041 209.959044 1128.60751 301.631399 1173.86348 271.460751 1378.09556 445.522184 1420.30717 483 968.307167 467 735.307167 483"></polygon>
                <path d="M968.301157,4943.7931 L1111.49437,4943.7931 C1111.49437,4943.7931 1106.22983,4922.92997 1092.08092,4920.23103 C1077.932,4917.53208 1070.6724,4924.93274 1070.6724,4924.93274 C1070.6724,4924.93274 1064.49749,4888 1033.0514,4888 C1001.60531,4888 994.771322,4921.48169 994.771322,4921.48169 C994.771322,4921.48169 983.756679,4918.28601 974.814121,4926.04539 C965.871564,4933.80477 968.301157,4943.7931 968.301157,4943.7931 Z" id="cloud-4" fill="url(#linearGradient-1)"></path>
                <path d="M789.345526,375.991048 L932.538735,375.991048 C932.538735,375.991048 927.2742,355.127918 913.125284,352.428977 C898.976368,349.730037 891.716772,357.13069 891.716772,357.13069 C891.716772,357.13069 885.54186,320.197952 854.095771,320.197952 C822.649682,320.197952 815.81569,353.679646 815.81569,353.679646 C815.81569,353.679646 804.801047,350.483965 795.85849,358.243342 C786.915932,366.002719 789.345526,375.991048 789.345526,375.991048 Z" id="cloud-3" fill="url(#linearGradient-1)"></path>
                <path d="M56.8259386,178.592717 L287.738129,178.592717 C287.738129,178.592717 290.027942,101.245155 222.791115,100.881816 C175.068555,100.623929 156.113872,139.736632 156.113872,139.736632 C156.113872,139.736632 146.183729,127.064827 126.644303,127.064827 C104.749169,127.064827 93.6227925,157.36803 93.6227925,157.36803 C93.6227925,157.36803 84.083978,149.727383 70.4549583,153.547707 C56.8259386,157.36803 56.8259386,178.592717 56.8259386,178.592717 Z" id="cloud-2" fill="url(#linearGradient-1)"></path>
                <path d="M1149.06845,206.197132 L1290.3413,206.197132 C1290.3413,206.197132 1285.14736,185.613797 1271.1882,182.951052 C1257.22903,180.288308 1250.0668,187.589711 1250.0668,187.589711 C1250.0668,187.589711 1243.9747,151.152277 1212.95033,151.152277 C1181.92596,151.152277 1175.18362,184.184949 1175.18362,184.184949 C1175.18362,184.184949 1164.3167,181.032125 1155.49407,188.687441 C1146.67144,196.342757 1149.06845,206.197132 1149.06845,206.197132 Z" id="cloud-1" fill="url(#linearGradient-1)"></path>
                <g id="bridge" transform="translate(829.658703, 355.010239)" fill="#30004A">
                    <polygon id="Path-16" points="589.615214 60.7798635 589.615214 51.7798635 0 51.7798635 0 60.7798635"></polygon>
                    <path d="M65.4340034,83.2636853 C66.0978223,82.5517383 66.8942105,81.720889 67.8213804,80.7810432 C70.4899969,78.0759423 73.6606783,75.0532267 77.3190175,71.7920825 C87.8005121,62.44859 100.063473,53.0960689 113.990926,44.3657018 C153.75258,19.4412716 198.811943,4.5 248.299913,4.5 C297.898761,4.5 345.471588,18.3859558 389.310967,41.548374 C404.670439,49.6635099 418.45902,58.3572263 430.460689,67.0439941 C434.651712,70.0774429 438.316463,72.8900472 441.428133,75.4084408 C442.510744,76.2846388 443.445152,77.059846 444.228016,77.724887 C444.688522,78.1160857 444.990867,78.3788138 445.131714,78.5038939 L451.107848,71.7744199 C450.918184,71.6059877 450.566098,71.3000356 450.054849,70.8657309 C449.218121,70.1549329 448.228798,69.3341668 447.090133,68.4126017 C443.855301,65.7945295 440.062492,62.8836433 435.737645,59.7533332 C423.408253,50.829361 409.265499,41.9123375 393.515339,33.5907829 C348.470055,9.791228 299.508778,-4.5 248.299913,-4.5 C196.980171,-4.5 150.316079,10.9733854 109.210818,36.7400502 C94.8348507,45.7515664 82.1731316,55.408206 71.3302217,65.073874 C67.5250193,68.4659361 64.2153036,71.6211977 61.4143595,74.4604354 C60.4271831,75.461108 59.5723187,76.3529639 58.8514401,77.1261075 C58.4092227,77.6003865 58.1044103,77.9360974 57.9386843,78.1233478 L64.6781991,84.0881563 C64.7928741,83.9585873 65.0454022,83.6804607 65.4340034,83.2636853 Z" id="Path-17"></path>
                    <polygon id="Path-20" points="56.7567659 81.7791415 62.2611105 74.6585944 33.1894887 52.1855706 27.6851441 59.3061177"></polygon>
                    <polygon id="Path-20-Copy" points="449.024179 75.6072627 454.4258 82.8060467 489.065679 56.8139491 483.664058 49.6151651"></polygon>
                    <polygon id="Path-19" points="55.8414428 126.953532 64.8411511 127.025991 65.4213559 54.9622819 56.4216476 54.8898228"></polygon>
                    <polygon id="Path-19-Copy" points="448.639932 127.825539 457.639932 127.825539 457.639932 54.6527884 448.639932 54.6527884"></polygon>
                    <polygon id="Path-18" points="124.645051 51.599356 130.645051 51.599356 130.645051 31.641088 124.645051 31.641088"></polygon>
                    <polygon id="Path-18-Copy-8" points="284.78157 51.599356 290.78157 51.599356 290.78157 5.02825711 284.78157 5.02825711"></polygon>
                    <polygon id="Path-18-Copy-4" points="202.392491 51.599356 208.392491 51.599356 208.392491 3.59019217 202.392491 3.59019217"></polygon>
                    <polygon id="Path-18-Copy-9" points="368.331058 51.599356 374.331058 51.599356 374.331058 29.4720527 368.331058 29.4720527"></polygon>
                    <polygon id="Path-18-Copy-2" points="164.017386 51.5470332 170.016473 51.6516787 170.661972 14.6467184 164.662884 14.5420729"></polygon>
                    <polygon id="Path-18-Copy-10" points="326.556314 51.599356 332.556314 51.599356 332.556314 12.2183996 326.556314 12.2183996"></polygon>
                    <polygon id="Path-18-Copy-5" points="244.167235 51.599356 250.167235 51.599356 250.167235 0.714034082 244.167235 0.714034082"></polygon>
                    <polygon id="Path-18-Copy" points="143.211604 51.599356 149.211604 51.599356 149.211604 22.2837634 143.211604 22.2837634"></polygon>
                    <polygon id="Path-18-Copy-12" points="305.668942 51.599356 311.668942 51.599356 311.668942 7.90435414 305.668942 7.90435414"></polygon>
                    <polygon id="Path-18-Copy-6" points="223.279863 51.599356 229.279863 51.599356 229.279863 0.673399896 223.279863 0.673399896"></polygon>
                    <polygon id="Path-18-Copy-13" points="389.21843 51.599356 395.21843 51.599356 395.21843 39.529918 389.21843 39.529918"></polygon>
                    <polygon id="Path-18-Copy-3" points="181.505119 51.599356 187.505119 51.599356 187.505119 9.34238399 181.505119 9.34238399"></polygon>
                    <polygon id="Path-18-Copy-14" points="347.443686 51.599356 353.443686 51.599356 353.443686 19.4080891 347.443686 19.4080891"></polygon>
                    <polygon id="Path-18-Copy-7" points="263.894198 51.599356 269.894198 51.599356 269.894198 2.15211755 263.894198 2.15211755"></polygon>
                </g>
                <path d="M626.006826,486.403804 L262.21843,486.403804 L262.21843,366.875101 L576.474433,366.875101 L576.474433,288.866894 L651.84925,288.866894 L651.84925,366.875101 L685.767918,366.875101 L685.767918,409.816773 L783.242321,409.816773 L783.242321,486.403804 L626.006826,486.403804 Z" id="background-buildings" fill-opacity="0.3" fill="#30004A"></path>
                <g id="building-1" transform="translate(743.788396, 288.866894)">
                    <path d="M9.42732925,20.887372 L0,20.887372 L0,181.023891 L95.7430146,181.023891 L95.7430146,20.887372 L85.3634727,20.887372 C77.3934013,8.33236905 63.3674657,0 47.395401,0 C31.4233363,0 17.3974007,8.33236905 9.42732925,20.887372 Z" id="bg" fill="#30004A"></path>
                    <path d="M11.6040956,37.1331058 L21.8016341,37.1331058 L21.8016341,165.938567 L11.6040956,165.938567 L11.6040956,37.1331058 Z M32.4914676,37.1331058 L42.6890061,37.1331058 L42.6890061,165.938567 L32.4914676,165.938567 L32.4914676,37.1331058 Z M53.3788396,37.1331058 L63.5763781,37.1331058 L63.5763781,165.938567 L53.3788396,165.938567 L53.3788396,37.1331058 Z M73.105802,37.1331058 L83.3033406,37.1331058 L83.3033406,165.938567 L73.105802,165.938567 L73.105802,37.1331058 Z" id="windows" fill="#701865"></path>
                </g>
                <g id="building-2" transform="translate(620.784983, 179.788396)">
                    <rect id="bg" fill="#30004A" x="0" y="0" width="109.078498" height="292.423208"></rect>
                    <path d="M13.9249147,17.4061433 L25.5290102,17.4061433 L25.5290102,47.5767918 L13.9249147,47.5767918 L13.9249147,17.4061433 Z M13.9249147,62.662116 L25.5290102,62.662116 L25.5290102,92.8327645 L13.9249147,92.8327645 L13.9249147,62.662116 Z M13.9249147,107.918089 L25.5290102,107.918089 L25.5290102,138.088737 L13.9249147,138.088737 L13.9249147,107.918089 Z M13.9249147,153.174061 L25.5290102,153.174061 L25.5290102,183.34471 L13.9249147,183.34471 L13.9249147,153.174061 Z M13.9249147,198.430034 L25.5290102,198.430034 L25.5290102,228.600683 L13.9249147,228.600683 L13.9249147,198.430034 Z M13.9249147,243.686007 L25.5290102,243.686007 L25.5290102,273.856655 L13.9249147,273.856655 L13.9249147,243.686007 Z M37.1331058,17.4061433 L48.7372014,17.4061433 L48.7372014,47.5767918 L37.1331058,47.5767918 L37.1331058,17.4061433 Z M37.1331058,62.662116 L48.7372014,62.662116 L48.7372014,92.8327645 L37.1331058,92.8327645 L37.1331058,62.662116 Z M37.1331058,107.918089 L48.7372014,107.918089 L48.7372014,138.088737 L37.1331058,138.088737 L37.1331058,107.918089 Z M37.1331058,153.174061 L48.7372014,153.174061 L48.7372014,183.34471 L37.1331058,183.34471 L37.1331058,153.174061 Z M37.1331058,198.430034 L48.7372014,198.430034 L48.7372014,228.600683 L37.1331058,228.600683 L37.1331058,198.430034 Z M37.1331058,243.686007 L48.7372014,243.686007 L48.7372014,273.856655 L37.1331058,273.856655 L37.1331058,243.686007 Z M60.3412969,17.4061433 L71.9453925,17.4061433 L71.9453925,47.5767918 L60.3412969,47.5767918 L60.3412969,17.4061433 Z M60.3412969,62.662116 L71.9453925,62.662116 L71.9453925,92.8327645 L60.3412969,92.8327645 L60.3412969,62.662116 Z M60.3412969,107.918089 L71.9453925,107.918089 L71.9453925,138.088737 L60.3412969,138.088737 L60.3412969,107.918089 Z M60.3412969,153.174061 L71.9453925,153.174061 L71.9453925,183.34471 L60.3412969,183.34471 L60.3412969,153.174061 Z M60.3412969,198.430034 L71.9453925,198.430034 L71.9453925,228.600683 L60.3412969,228.600683 L60.3412969,198.430034 Z M60.3412969,243.686007 L71.9453925,243.686007 L71.9453925,273.856655 L60.3412969,273.856655 L60.3412969,243.686007 Z M83.5494881,17.4061433 L95.1535836,17.4061433 L95.1535836,47.5767918 L83.5494881,47.5767918 L83.5494881,17.4061433 Z M83.5494881,62.662116 L95.1535836,62.662116 L95.1535836,92.8327645 L83.5494881,92.8327645 L83.5494881,62.662116 Z M83.5494881,107.918089 L95.1535836,107.918089 L95.1535836,138.088737 L83.5494881,138.088737 L83.5494881,107.918089 Z M83.5494881,153.174061 L95.1535836,153.174061 L95.1535836,183.34471 L83.5494881,183.34471 L83.5494881,153.174061 Z M83.5494881,198.430034 L95.1535836,198.430034 L95.1535836,228.600683 L83.5494881,228.600683 L83.5494881,198.430034 Z M83.5494881,243.686007 L95.1535836,243.686007 L95.1535836,273.856655 L83.5494881,273.856655 L83.5494881,243.686007 Z" id="windows" fill="#701865"></path>
                </g>
                <g id="building-3" transform="translate(502.423208, 237.808874)">
                    <path d="M51.0580205,16.7558039 L45.9063121,16.7558039 L45.9063121,26.9572066 L43.4904526,26.9572066 L28.0538574,50.2848376 L28.0538574,75.4138694 L12.7517534,75.4138694 L12.7517534,160.136519 L5.80204778,160.136519 L5.80204778,181.023891 L0,181.023891 L0,240.957132 L105.839553,240.957132 L105.839553,181.023891 L100.165023,181.023891 L100.165023,160.136519 L93.0877996,160.136519 L93.0877996,75.4138694 L77.9899228,75.4138694 L77.9899228,52.303807 L61.8310619,26.9572066 L61.2084162,26.9572066 L61.2084162,16.7558039 L56.7389266,16.7558039 L56.7389266,0 L51.0580205,0 L51.0580205,16.7558039 Z" id="bg" fill="#30004A"></path>
                    <path d="M26.6894198,148.532423 L80.215577,148.532423 L80.215577,160.136519 L26.6894198,160.136519 L26.6894198,148.532423 Z M26.6894198,127.258248 L80.215577,127.258248 L80.215577,138.862344 L26.6894198,138.862344 L26.6894198,127.258248 Z M26.6894198,105.984073 L80.215577,105.984073 L80.215577,117.588168 L26.6894198,117.588168 L26.6894198,105.984073 Z M26.6894198,84.7098976 L80.215577,84.7098976 L80.215577,96.3139932 L26.6894198,96.3139932 L26.6894198,84.7098976 Z" id="windows" fill="#701865"></path>
                </g>
                <g id="building-4" transform="translate(261.058020, 334.122867)">
                    <rect id="bg" fill="#30004A" x="0" y="0" width="219.317406" height="123.003413"></rect>
                    <path d="M17.4061433,13.9249147 L66.1433447,13.9249147 L66.1433447,27.8498294 L17.4061433,27.8498294 L17.4061433,13.9249147 Z M85.8703072,13.9249147 L134.607509,13.9249147 L134.607509,27.8498294 L85.8703072,27.8498294 L85.8703072,13.9249147 Z M154.334471,13.9249147 L203.071672,13.9249147 L203.071672,27.8498294 L154.334471,27.8498294 L154.334471,13.9249147 Z M17.4061433,39.4539249 L66.1433447,39.4539249 L66.1433447,53.3788396 L17.4061433,53.3788396 L17.4061433,39.4539249 Z M85.8703072,39.4539249 L134.607509,39.4539249 L134.607509,53.3788396 L85.8703072,53.3788396 L85.8703072,39.4539249 Z M154.334471,39.4539249 L203.071672,39.4539249 L203.071672,53.3788396 L154.334471,53.3788396 L154.334471,39.4539249 Z M17.4061433,64.9829352 L66.1433447,64.9829352 L66.1433447,78.9078498 L17.4061433,78.9078498 L17.4061433,64.9829352 Z M85.8703072,64.9829352 L134.607509,64.9829352 L134.607509,78.9078498 L85.8703072,78.9078498 L85.8703072,64.9829352 Z M154.334471,64.9829352 L203.071672,64.9829352 L203.071672,78.9078498 L154.334471,78.9078498 L154.334471,64.9829352 Z" id="windows" fill="#701865"></path>
                </g>
                <g id="foreground">
                    <mask id="mask-3" fill="white">
                        <use xlink:href="#path-2"></use>
                    </mask>
                    <g id="Mask"></g>
                    <path d="M1286.3155,308.973221 L1275.68886,283.876227 L1284.33754,287.896864 L1266.01689,243.610922 C1266.01689,243.610922 1262.55298,259.073839 1259.56891,266.506346 C1256.86917,273.230685 1248.96544,286.081458 1248.96544,286.081458 L1261.35372,281.745787 C1261.35372,281.745787 1252.68531,300.390881 1247.92062,309.076605 C1244.65536,315.028964 1237.26389,325.660036 1237.26389,325.660036 L1247.92062,325.086631 C1247.92062,325.086631 1241.93186,340.109797 1238.65094,346.252773 C1233.67679,355.566059 1223.1554,371.455418 1223.1554,371.455418 L1238.65094,369.154997 C1238.65094,369.154997 1232.04136,385.138339 1227.63612,392.981922 C1223.23327,400.821244 1212.2267,416.203712 1212.2267,416.203712 L1158.27332,427.067253 C1153.99544,428.953485 1155.37343,416.203712 1155.37343,416.203712 L1164.40286,419.538756 C1164.40286,419.538756 1157.57474,410.860617 1153.99544,403.915156 C1147.79285,391.879309 1139.54925,367.033623 1139.54925,367.033623 L1148.49029,371.394225 C1148.49029,371.394225 1140.30416,356.672637 1136.80914,348.665382 C1132.43136,338.635672 1126.57397,318.962751 1126.57397,318.962751 L1134.42713,322.745414 C1134.42713,322.745414 1126.48984,310.699392 1123.17433,301.28577 C1119.88624,291.950014 1117.10484,271.895904 1117.10484,271.895904 C1117.10484,271.895904 1110.38841,292.63037 1106.72348,301.28577 C1103.2114,309.580207 1095.57381,322.745414 1095.57381,322.745414 L1103.92331,315.549515 C1103.92331,315.549515 1099.01564,337.39289 1095.57381,346.252773 C1091.78423,356.007793 1082.2291,371.394225 1082.2291,371.394225 L1092.29882,365.367801 C1092.29882,365.367801 1085.56975,385.078645 1081.04376,394.175195 C1075.82412,404.665845 1063.06194,424.1294 1063.06194,424.1294 L1078.35804,416.353296 L1069.43059,434.443899 C1069.43059,434.443899 1062.54293,434.4371 1055.36063,434.4371 C1048.17833,434.4371 1042.55986,440.836351 1034.49819,441.144585 C1026.43651,441.452818 1008.11587,441.144585 1008.11587,441.144585 L1000.79418,453.078445 C1000.79418,453.078445 892.753109,461.868281 838.425235,464.504626 C780.311237,467.324699 663.468563,469.447699 663.468563,469.447699 C663.468563,469.447699 656.039625,463.654338 647.084011,458.621554 C639.755259,454.503017 631.132337,451.190469 626.997254,449.495227 C617.809167,445.728429 613.833291,436.415122 611.318126,436.415122 C608.802961,436.415122 583.110202,442.340124 583.110202,442.340124 L569.321272,453.262025 C569.321272,453.262025 547.300771,451.222719 536.364055,449.495227 C524.251985,447.582085 500.174915,442.340124 500.174915,442.340124 C500.174915,442.340124 497.878601,437.371276 491.087684,432.388252 C484.296767,427.405228 476.833004,425.944806 476.833004,425.944806 C476.833004,425.944806 464.918975,433.260826 457.596723,435.53405 C457.596723,435.53405 419.242581,433.016052 413.802028,432.388252 C408.361475,431.760452 406.735882,427.067253 406.735882,427.067253 L417.925788,427.067253 C417.925788,427.067253 406.439741,411.783566 402.508432,403.915156 C399.262729,397.418965 395.672328,385.205818 395.672328,385.205818 L405.189047,388.666649 C405.189047,388.666649 398.611349,377.200809 395.672328,371.455418 C392.146183,364.562279 385.793549,350.75106 385.793549,350.75106 C385.793549,350.75106 380.010158,365.612351 376.962991,372.108715 C374.199611,378.000063 368.361908,387.914196 368.361908,387.914196 L376.962991,384.172328 C376.962991,384.172328 369.579953,401.693758 365.532277,409.268451 C362.220871,415.465311 355.533943,427.067253 355.533943,427.067253 L363.759366,423.977549 C363.759366,423.977549 363.759366,431.760452 359.639572,431.760452 C355.519778,431.760452 322.650384,433.260826 322.650384,433.260826 L304.247014,401.614734 L320.943766,403.915156 L285.379026,356.322499 L303.181794,366.369561 L257.186967,253.635319 L214.399131,367.149211 L239.3706,344.464564 L198.794795,411.15865 L218.965977,404.549755 L197.517917,441.748673 C197.129954,441.221277 196.767085,440.708241 196.434101,440.213552 C191.68014,433.150945 186.023146,415.906812 186.023146,415.906812 L199.556314,421.153584 L182.150171,387.501706 L169.211059,362.847532 L188.04297,366.941426 L161.84205,316.177143 L178.217625,315.358364 C178.217625,315.358364 166.531049,301.079378 161.84205,292.841948 C156.432777,283.339172 147.922811,262.137744 147.922811,262.137744 L160.204492,264.594081 C160.204492,264.594081 149.023733,247.866092 145.057085,239.007244 C140.835946,229.580033 135.64113,209.735904 135.64113,209.735904 L147.104032,213.829797 C147.104032,213.829797 139.073376,200.305754 135.64113,192.950939 C131.431441,183.930178 124.178227,164.703072 124.178227,164.703072 C124.178227,164.703072 118.205628,182.608716 115.17166,190.699297 C112.474177,197.892587 106.983873,210.554682 106.983873,210.554682 L115.17166,208.098346 C115.17166,208.098346 108.885412,228.322736 104.732231,237.164992 C100.424698,246.335869 89.7895188,262.137744 89.7895188,262.137744 L101.252422,262.137744 L84.4127357,295.306822 L84.2731894,295.146415 L61.6291867,252.878444 L86.9936669,258.392461 L51.7039553,190.018645 L73.760025,188.915842 C73.760025,188.915842 58.0195128,169.683644 51.7039553,158.588746 C44.4182698,145.789568 32.956296,117.233615 32.956296,117.233615 L49.4983483,120.542025 C49.4983483,120.542025 34.4391155,98.0112938 29.0964838,86.0794164 C23.4110806,73.3820159 16.4142437,46.6541918 16.4142437,46.6541918 L31.8534925,52.1682092 C31.8534925,52.1682092 21.0370966,33.9528337 16.4142437,24.0467203 C10.7442641,11.896764 0.974994895,-14 0.974994895,-14 C0.974994895,-14 -7.0694278,10.1169023 -11.1558435,21.0140107 C-14.7890522,30.7025674 -22.1838783,47.7569953 -22.1838783,47.7569953 L-11.1558435,44.4485848 C-11.1558435,44.4485848 -19.6227173,71.6885776 -25.2165879,83.5981086 C-31.0183533,95.9502543 -45.3427515,117.233615 -45.3427515,117.233615 L-29.9035027,117.233615 L-66.2960178,188.915842 L-47.5483585,188.915842 C-47.5483585,188.915842 -113.716568,273.83171 -86.1464806,265.009282 C-58.5763934,256.186854 -56.3707864,246.261623 -56.3707864,246.261623 L-83.9408736,310.224225 L-9.95615271,421.622598 C-14.6051206,427.073896 -18.6142811,432.388252 -18.6142811,432.388252 L-130,414.993441 L-125.358362,603.337884 L0,601.709168 L0,647 L1440,647 L1440,528.766212 L1440,421.273757 L1569.42632,407.925927 L1529.22077,334.018675 L1567.65254,354.121447 C1567.65254,354.121447 1549.86771,330.216735 1542.22845,316.872192 C1534.29792,303.018866 1520.94316,272.527841 1520.94316,272.527841 L1545.776,276.075389 C1545.776,276.075389 1527.997,253.629918 1520.94316,240.599908 C1513.80681,227.417479 1503.20542,197.438072 1503.20542,197.438072 L1517.39561,198.02933 C1517.39561,198.02933 1505.08905,178.124515 1500.10593,166.692655 C1495.03766,155.065452 1487.24145,128.852142 1487.24145,128.852142 L1500.10593,133.090261 C1500.10593,133.090261 1488.32594,109.983676 1483.6939,97.5154668 C1479.30771,85.7089933 1473.05126,60.2662116 1473.05126,60.2662116 C1473.05126,60.2662116 1463.60445,93.648209 1457.08729,108.158111 C1453.15889,116.904358 1441.71458,130.034658 1441.71458,130.034658 L1457.08729,125.304594 C1457.08729,125.304594 1444.2734,158.485644 1437.57578,173.196493 C1433.23658,182.727223 1423.97684,198.02933 1423.97684,198.02933 L1437.57578,195.664298 C1437.57578,195.664298 1428.11721,220.991399 1422.20307,232.913553 C1415.70079,246.021322 1400.32652,270.754067 1400.32652,270.754067 L1422.20307,270.162809 L1397.96149,314.50716 L1376.6762,280.805453 L1393.82268,280.805453 C1393.82268,280.805453 1378.07047,257.148225 1371.94614,244.147456 C1366.83656,233.300818 1360.12098,209.263233 1360.12098,209.263233 L1374.31117,213.993297 C1374.31117,213.993297 1362.40021,195.216307 1357.75595,185.612912 C1350.77214,171.171814 1339.42695,141.859818 1339.42695,141.859818 C1339.42695,141.859818 1329.58756,171.514818 1323.46298,185.612912 C1319.142,195.559311 1308.09027,213.993297 1308.09027,213.993297 L1325.82801,208.080716 C1325.82801,208.080716 1311.80962,239.03344 1303.95147,253.016326 C1298.40777,262.880846 1285.62247,279.622937 1285.62247,279.622937 L1303.95147,275.484131 C1303.95147,275.484131 1295.14496,292.907538 1286.3155,308.973221 Z" fill="#140034" mask="url(#mask-3)"></path>
                </g>
            </g>
        </g>
    </g>
</svg>